%TF.GenerationSoftware,KiCad,Pcbnew,10.0.1*%
%TF.CreationDate,2026-08-11T11:29:56+02:00*%
%TF.ProjectId,Untitled,556e7469-746c-4656-942e-6b696361645f,rev?*%
%TF.SameCoordinates,Original*%
%TF.FileFunction,Copper,L1,Top*%
%TF.FilePolarity,Positive*%
%FSLAX46Y46*%
G04 Gerber Fmt 4.6, Leading zero omitted, Abs format (unit mm)*
G04 Created by KiCad (PCBNEW 10.0.1) date 2026-08-11 11:29:56*
%MOMM*%
%LPD*%
G01*
G04 APERTURE LIST*
%ADD10C,0.300000*%
%TA.AperFunction,NonConductor*%
%ADD11C,0.300000*%
%TD*%
%TA.AperFunction,ComponentPad*%
%ADD12R,1.700000X1.700000*%
%TD*%
%TA.AperFunction,ComponentPad*%
%ADD13C,1.700000*%
%TD*%
%TA.AperFunction,ComponentPad*%
%ADD14R,2.000000X1.905000*%
%TD*%
%TA.AperFunction,ComponentPad*%
%ADD15O,2.000000X1.905000*%
%TD*%
%TA.AperFunction,ViaPad*%
%ADD16C,3.800000*%
%TD*%
%TA.AperFunction,ViaPad*%
%ADD17C,0.600000*%
%TD*%
%TA.AperFunction,Conductor*%
%ADD18C,0.200000*%
%TD*%
G04 APERTURE END LIST*
D10*
D11*
X97074042Y-68361096D02*
X97074042Y-69575382D01*
X97074042Y-69575382D02*
X97145471Y-69718239D01*
X97145471Y-69718239D02*
X97216900Y-69789668D01*
X97216900Y-69789668D02*
X97359757Y-69861096D01*
X97359757Y-69861096D02*
X97645471Y-69861096D01*
X97645471Y-69861096D02*
X97788328Y-69789668D01*
X97788328Y-69789668D02*
X97859757Y-69718239D01*
X97859757Y-69718239D02*
X97931185Y-69575382D01*
X97931185Y-69575382D02*
X97931185Y-68361096D01*
X98574043Y-69789668D02*
X98788329Y-69861096D01*
X98788329Y-69861096D02*
X99145471Y-69861096D01*
X99145471Y-69861096D02*
X99288329Y-69789668D01*
X99288329Y-69789668D02*
X99359757Y-69718239D01*
X99359757Y-69718239D02*
X99431186Y-69575382D01*
X99431186Y-69575382D02*
X99431186Y-69432525D01*
X99431186Y-69432525D02*
X99359757Y-69289668D01*
X99359757Y-69289668D02*
X99288329Y-69218239D01*
X99288329Y-69218239D02*
X99145471Y-69146810D01*
X99145471Y-69146810D02*
X98859757Y-69075382D01*
X98859757Y-69075382D02*
X98716900Y-69003953D01*
X98716900Y-69003953D02*
X98645471Y-68932525D01*
X98645471Y-68932525D02*
X98574043Y-68789668D01*
X98574043Y-68789668D02*
X98574043Y-68646810D01*
X98574043Y-68646810D02*
X98645471Y-68503953D01*
X98645471Y-68503953D02*
X98716900Y-68432525D01*
X98716900Y-68432525D02*
X98859757Y-68361096D01*
X98859757Y-68361096D02*
X99216900Y-68361096D01*
X99216900Y-68361096D02*
X99431186Y-68432525D01*
X100574042Y-69075382D02*
X100788328Y-69146810D01*
X100788328Y-69146810D02*
X100859757Y-69218239D01*
X100859757Y-69218239D02*
X100931185Y-69361096D01*
X100931185Y-69361096D02*
X100931185Y-69575382D01*
X100931185Y-69575382D02*
X100859757Y-69718239D01*
X100859757Y-69718239D02*
X100788328Y-69789668D01*
X100788328Y-69789668D02*
X100645471Y-69861096D01*
X100645471Y-69861096D02*
X100074042Y-69861096D01*
X100074042Y-69861096D02*
X100074042Y-68361096D01*
X100074042Y-68361096D02*
X100574042Y-68361096D01*
X100574042Y-68361096D02*
X100716900Y-68432525D01*
X100716900Y-68432525D02*
X100788328Y-68503953D01*
X100788328Y-68503953D02*
X100859757Y-68646810D01*
X100859757Y-68646810D02*
X100859757Y-68789668D01*
X100859757Y-68789668D02*
X100788328Y-68932525D01*
X100788328Y-68932525D02*
X100716900Y-69003953D01*
X100716900Y-69003953D02*
X100574042Y-69075382D01*
X100574042Y-69075382D02*
X100074042Y-69075382D01*
D12*
%TO.P,J3,1,Pin_1_1*%
%TO.N,GND*%
X91440000Y-43180000D03*
%TD*%
%TO.P,J9,1,Pin_1_1*%
%TO.N,MAX485_GND*%
X40640000Y-53340000D03*
D13*
%TO.P,J9,2,Pin_2_2*%
%TO.N,unconnected-(J9-Pin_2-Pad2)*%
X40640000Y-55880000D03*
%TO.P,J9,3,Pin_3_3*%
%TO.N,MAX485_B*%
X40640000Y-58420000D03*
%TO.P,J9,4,Pin_4_4*%
%TO.N,unconnected-(J9-Pin_4-Pad4)*%
X40640000Y-60960000D03*
%TO.P,J9,5,Pin_5_5*%
%TO.N,MAX485_A*%
X40640000Y-63500000D03*
%TD*%
D12*
%TO.P,J10,1,Pin_1_1*%
%TO.N,MAX485_GND*%
X45720000Y-53340000D03*
D13*
%TO.P,J10,2,Pin_2_2*%
%TO.N,unconnected-(J10-Pin_2-Pad2)*%
X45720000Y-55880000D03*
%TO.P,J10,3,Pin_3_3*%
%TO.N,MAX485_B*%
X45720000Y-58420000D03*
%TO.P,J10,4,Pin_4_4*%
%TO.N,unconnected-(J10-Pin_4-Pad4)*%
X45720000Y-60960000D03*
%TO.P,J10,5,Pin_5_5*%
%TO.N,MAX485_A*%
X45720000Y-63500000D03*
%TD*%
D12*
%TO.P,J17,1,Pin_1_1*%
%TO.N,GND*%
X86360000Y-54085000D03*
D13*
%TO.P,J17,2,Pin_2_2*%
%TO.N,DMX_Rx*%
X86360000Y-56625000D03*
%TO.P,J17,3,Pin_3_3*%
%TO.N,DMX_Tx*%
X86360000Y-59165000D03*
%TO.P,J17,4,Pin_4_4*%
%TO.N,+3V3*%
X86360000Y-61705000D03*
%TD*%
D12*
%TO.P,J6,1,Pin_1_1*%
%TO.N,LED_PWR*%
X43617535Y-39864660D03*
D13*
%TO.P,J6,2,Pin_2_2*%
%TO.N,GND*%
X43617535Y-37324660D03*
%TO.P,J6,3,Pin_3_3*%
%TO.N,unconnected-(J6-Pin_3-Pad3)*%
X41077535Y-39864660D03*
%TO.P,J6,4,Pin_4_4*%
%TO.N,unconnected-(J6-Pin_4-Pad4)*%
X41077535Y-37324660D03*
%TO.P,J6,5,Pin_5_5*%
%TO.N,LED_PWR*%
X38537535Y-39864660D03*
%TO.P,J6,6,Pin_6_6*%
%TO.N,GND*%
X38537535Y-37324660D03*
%TD*%
D12*
%TO.P,J25,1,Pin_1_1*%
%TO.N,+5V*%
X91440000Y-68580000D03*
D13*
%TO.P,J25,2,Pin_2_2*%
%TO.N,GND*%
X91440000Y-66040000D03*
%TO.P,J25,3,Pin_3_3*%
%TO.N,+3V3*%
X91440000Y-63500000D03*
%TO.P,J25,4,Pin_4_4*%
%TO.N,unconnected-(J25-Pin_4-Pad4)*%
X91440000Y-60960000D03*
%TO.P,J25,5,Pin_5_5*%
%TO.N,unconnected-(J25-Pin_5-Pad5)*%
X91440000Y-58420000D03*
%TO.P,J25,6,Pin_6_6*%
%TO.N,unconnected-(J25-Pin_6-Pad6)*%
X91440000Y-55880000D03*
%TO.P,J25,7,Pin_7_7*%
%TO.N,unconnected-(J25-Pin_7-Pad7)*%
X91440000Y-53340000D03*
%TO.P,J25,8,Pin_8_8*%
%TO.N,unconnected-(J25-Pin_8-Pad8)*%
X91440000Y-50800000D03*
%TD*%
D12*
%TO.P,J24,1,Pin_1_1*%
%TO.N,unconnected-(J24-Pin_1-Pad1)*%
X106680000Y-68580000D03*
D13*
%TO.P,J24,2,Pin_2_2*%
%TO.N,unconnected-(J24-Pin_2-Pad2)*%
X106680000Y-66040000D03*
%TO.P,J24,3,Pin_3_3*%
%TO.N,unconnected-(J24-Pin_3-Pad3)*%
X106680000Y-63500000D03*
%TO.P,J24,4,Pin_4_4*%
%TO.N,unconnected-(J24-Pin_4-Pad4)*%
X106680000Y-60960000D03*
%TO.P,J24,5,Pin_5_5*%
%TO.N,unconnected-(J24-Pin_5-Pad5)*%
X106680000Y-58420000D03*
%TO.P,J24,6,Pin_6_6*%
%TO.N,unconnected-(J24-Pin_6-Pad6)*%
X106680000Y-55880000D03*
%TO.P,J24,7,Pin_7_7*%
%TO.N,DMX_Rx*%
X106680000Y-53340000D03*
%TO.P,J24,8,Pin_8_8*%
%TO.N,DMX_Tx*%
X106680000Y-50800000D03*
%TD*%
D12*
%TO.P,J7,1,Pin_1_1*%
%TO.N,GND*%
X42010631Y-25601262D03*
D13*
%TO.P,J7,2,Pin_2_2*%
%TO.N,unconnected-(J7-Pin_2-Pad2)*%
X42010631Y-28141262D03*
%TO.P,J7,3,Pin_3_3*%
%TO.N,+18V*%
X42010631Y-30681262D03*
%TD*%
D12*
%TO.P,J5,1,Pin_1_1*%
%TO.N,GND*%
X50800000Y-43180000D03*
%TD*%
%TO.P,J4,1,Pin_1_1*%
%TO.N,LED_PWR*%
X91440000Y-25400000D03*
%TD*%
%TO.P,J2,1,Pin_1_1*%
%TO.N,+18V*%
X50800000Y-25400000D03*
%TD*%
D14*
%TO.P,U1,1,VI_1*%
%TO.N,LED_PWR*%
X101600000Y-30480000D03*
D15*
%TO.P,U1,2,GND_2*%
%TO.N,GND*%
X101600000Y-33020000D03*
%TO.P,U1,3,VO_3*%
%TO.N,+5V*%
X101600000Y-35560000D03*
%TD*%
D16*
%TO.N,*%
X71374000Y-45720000D03*
X99060000Y-45720000D03*
X43180000Y-45720000D03*
D17*
%TO.N,+5V*%
X96520000Y-66040000D03*
X96520000Y-56480000D03*
%TD*%
%TO.N,DMX_Rx*%
D18*
X86360000Y-56625000D02*
X85210000Y-57775000D01*
X85210000Y-57775000D02*
X85210000Y-59641346D01*
X85210000Y-59641346D02*
X85883654Y-60315000D01*
X85883654Y-60315000D02*
X89168654Y-60315000D01*
X89168654Y-60315000D02*
X90963654Y-62110000D01*
X90963654Y-62110000D02*
X97910000Y-62110000D01*
X97910000Y-62110000D02*
X106680000Y-53340000D01*
%TO.N,MAX485_GND*%
X45720000Y-53340000D02*
X40640000Y-53340000D01*
%TO.N,MAX485_B*%
X40640000Y-58420000D02*
X45720000Y-58420000D01*
%TO.N,MAX485_A*%
X40640000Y-63500000D02*
X45720000Y-63500000D01*
%TO.N,DMX_Tx*%
X86360000Y-59165000D02*
X86765000Y-59570000D01*
X97910000Y-59570000D02*
X106680000Y-50800000D01*
X86765000Y-59570000D02*
X97910000Y-59570000D01*
%TO.N,+3V3*%
X88155000Y-63500000D02*
X91440000Y-63500000D01*
X86360000Y-61705000D02*
X88155000Y-63500000D01*
%TO.N,LED_PWR*%
X38537535Y-39864660D02*
X39687535Y-41014660D01*
X42467535Y-41014660D02*
X43617535Y-39864660D01*
X43617535Y-39864660D02*
X76975340Y-39864660D01*
X96520000Y-25400000D02*
X101600000Y-30480000D01*
X91440000Y-25400000D02*
X96520000Y-25400000D01*
X39687535Y-41014660D02*
X42467535Y-41014660D01*
X76975340Y-39864660D02*
X91440000Y-25400000D01*
%TO.N,+5V*%
X91440000Y-68580000D02*
X93980000Y-68580000D01*
X93980000Y-68580000D02*
X96520000Y-66040000D01*
X101600000Y-51400000D02*
X101600000Y-35560000D01*
X96520000Y-56480000D02*
X101600000Y-51400000D01*
%TO.N,+18V*%
X48260000Y-25400000D02*
X50800000Y-25400000D01*
X45720000Y-30480000D02*
X45720000Y-27940000D01*
X45518738Y-30681262D02*
X45720000Y-30480000D01*
X45720000Y-27940000D02*
X48260000Y-25400000D01*
X42010631Y-30681262D02*
X45518738Y-30681262D01*
%TD*%
M02*
