M48
; DRILL file KiCad 10.0.1 date 2026-08-11T11:30:05
; FORMAT={-:-/ absolute / metric / decimal}
; #@! TF.CreationDate,2026-08-11T11:30:05+02:00
; #@! TF.GenerationSoftware,Kicad,Pcbnew,10.0.1
; #@! TF.FileFunction,Plated,1,2,PTH
FMAT,2
METRIC
; #@! TA.AperFunction,Plated,PTH,ViaDrill
T1C0.300
; #@! TA.AperFunction,Plated,PTH,ComponentDrill
T2C1.000
; #@! TA.AperFunction,Plated,PTH,ComponentDrill
T3C1.100
; #@! TA.AperFunction,Plated,PTH,ViaDrill
T4C3.500
%
G90
G05
T1
X96.52Y-56.48
X96.52Y-66.04
T2
X38.538Y-37.325
X38.538Y-39.865
X40.64Y-53.34
X40.64Y-55.88
X40.64Y-58.42
X40.64Y-60.96
X40.64Y-63.5
X41.078Y-37.325
X41.078Y-39.865
X42.011Y-25.601
X42.011Y-28.141
X42.011Y-30.681
X43.618Y-37.325
X43.618Y-39.865
X45.72Y-53.34
X45.72Y-55.88
X45.72Y-58.42
X45.72Y-60.96
X45.72Y-63.5
X50.8Y-25.4
X50.8Y-43.18
X86.36Y-54.085
X86.36Y-56.625
X86.36Y-59.165
X86.36Y-61.705
X91.44Y-25.4
X91.44Y-43.18
X91.44Y-50.8
X91.44Y-53.34
X91.44Y-55.88
X91.44Y-58.42
X91.44Y-60.96
X91.44Y-63.5
X91.44Y-66.04
X91.44Y-68.58
X106.68Y-50.8
X106.68Y-53.34
X106.68Y-55.88
X106.68Y-58.42
X106.68Y-60.96
X106.68Y-63.5
X106.68Y-66.04
X106.68Y-68.58
T3
X101.6Y-30.48
X101.6Y-33.02
X101.6Y-35.56
T4
X43.18Y-45.72
X71.374Y-45.72
X99.06Y-45.72
M30
